<svg xmlns="http://www.w3.org/2000/svg" viewBox="0 0 1024 1024">
  <defs>
    <linearGradient id="bg" x1="0" y1="0" x2="0" y2="1">
      <stop offset="0%" stop-color="#3B82F6"/>
      <stop offset="100%" stop-color="#1D4ED8"/>
    </linearGradient>
  </defs>

  <rect width="1024" height="1024" rx="220" ry="220" fill="url(#bg)"/>

  <g transform="translate(512,512)">
    <path d="M263.6,-58.2 L358.6,-31.4 L358.6,31.4 L263.6,58.2 L227.6,145.2 L275.8,231.4 L231.4,275.8 L145.2,227.6 L58.2,263.6 L31.4,358.6 L-31.4,358.6 L-58.2,263.6 L-145.2,227.6 L-231.4,275.8 L-275.8,231.4 L-227.6,145.2 L-263.6,58.2 L-358.6,31.4 L-358.6,-31.4 L-263.6,-58.2 L-227.6,-145.2 L-275.8,-231.4 L-231.4,-275.8 L-145.2,-227.6 L-58.2,-263.6 L-31.4,-358.6 L31.4,-358.6 L58.2,-263.6 L145.2,-227.6 L231.4,-275.8 L275.8,-231.4 L227.6,-145.2 Z" fill="white" opacity="0.95"/>
    <circle cx="0" cy="0" r="130" fill="#2563EB"/>
  </g>
</svg>